<svg width="14" height="15" viewBox="0 0 14 15" fill="none" xmlns="http://www.w3.org/2000/svg">
<path d="M12.5417 6.85841V2.89175C12.5417 2.01675 12.1683 1.66675 11.2408 1.66675H8.88416C7.95666 1.66675 7.58333 2.01675 7.58333 2.89175V6.85841C7.58333 7.73342 7.95666 8.08342 8.88416 8.08342H11.2408C12.1683 8.08342 12.5417 7.73342 12.5417 6.85841Z" fill="white" fill-opacity="0.48"/>
<path d="M6.41666 8.14175V12.1084C6.41666 12.9834 6.04333 13.3334 5.11583 13.3334H2.75916C1.83166 13.3334 1.45833 12.9834 1.45833 12.1084V8.14175C1.45833 7.26675 1.83166 6.91675 2.75916 6.91675H5.11583C6.04333 6.91675 6.41666 7.26675 6.41666 8.14175Z" fill="white" fill-opacity="0.48"/>
<path d="M12.5417 12.1084V10.4751C12.5417 9.60008 12.1683 9.25008 11.2408 9.25008H8.88416C7.95666 9.25008 7.58333 9.60008 7.58333 10.4751V12.1084C7.58333 12.9834 7.95666 13.3334 8.88416 13.3334H11.2408C12.1683 13.3334 12.5417 12.9834 12.5417 12.1084Z" fill="white" fill-opacity="0.48"/>
<path d="M6.41666 4.52508V2.89175C6.41666 2.01675 6.04333 1.66675 5.11583 1.66675H2.75916C1.83166 1.66675 1.45833 2.01675 1.45833 2.89175V4.52508C1.45833 5.40008 1.83166 5.75008 2.75916 5.75008H5.11583C6.04333 5.75008 6.41666 5.40008 6.41666 4.52508Z" fill="white" fill-opacity="0.48"/>
</svg>
